{"asset":{"version":"2.0"},"extensionsUsed":["KHR_materials_variants"],"extensions":{"KHR_materials_variants":{"variants":[{"name":"red"},{"name":"red"},{"name":"blue"},{"name":"red.1"}]}},"buffers":[{"byteLength":72,"uri":"data:application/octet-stream;base64,"}],"bufferViews":[{"buffer":0,"byteLength":36},{"buffer":0,"byteOffset":36,"byteLength":36}],"accessors":[{"bufferView":0,"componentType":5126,"count":3,"type":"VEC3","min":[0,0,0],"max":[1,1,0]},{"bufferView":1,"componentType":5126,"count":3,"type":"VEC3"}],"materials":[{"name":"white","pbrMetallicRoughness":{"baseColorFactor":[1,1,1,1]}},{"name":"red","pbrMetallicRoughness":{"baseColorFactor":[1,0,0,1]}},{"name":"blue","pbrMetallicRoughness":{"baseColorFactor":[0,0,1,1]}},{"name":"green","pbrMetallicRoughness":{"baseColorFactor":[0,1,0,1]}}],"meshes":[{"primitives":[{"attributes":{"POSITION":0},"material":0,"extensions":{"KHR_materials_variants":{"mappings":[{"material":1,"variants":[0,1]},{"material":2,"variants":[2]}]}}},{"attributes":{"POSITION":0,"COLOR_0":1},"extensions":{"KHR_materials_variants":{"mappings":[{"material":3,"variants":[1]},{"material":2,"variants":[1,3]}]}}}]},{"primitives":[{"attributes":{"POSITION":0},"mode":0,"material":0,"extensions":{"KHR_materials_variants":{"mappings":[{"material":3,"variants":[2]}]}}}]},{"primitives":[{"attributes":{"POSITION":0},"material":2}]}],"nodes":[{"mesh":0},{"mesh":1},{"mesh":2}],"scenes":[{"nodes":[0,1,2]}],"scene":0}