{"asset":{"version":"2.0"},"extensionsUsed":["EXT_meshopt_compression","KHR_mesh_quantization"],"extensionsRequired":["KHR_mesh_quantization"],"buffers":[{"byteLength":768,"uri":"data:application/octet-stream;base64,"},{"byteLength":1276,"uri":"data:application/octet-stream;base64,"}],"bufferViews":[{"buffer":1,"byteOffset":0,"byteLength":392,"extensions":{"EXT_meshopt_compression":{"buffer":0,"byteOffset":0,"byteLength":229,"byteStride":8,"count":49,"mode":"ATTRIBUTES"}},"byteStride":8,"target":34962},{"buffer":1,"byteOffset":392,"byteLength":196,"extensions":{"EXT_meshopt_compression":{"buffer":0,"byteOffset":232,"byteLength":134,"byteStride":4,"count":49,"mode":"ATTRIBUTES","filter":"OCTAHEDRAL"}},"byteStride":4,"target":34962},{"buffer":1,"byteOffset":588,"byteLength":196,"extensions":{"EXT_meshopt_compression":{"buffer":0,"byteOffset":368,"byteLength":179,"byteStride":4,"count":49,"mode":"ATTRIBUTES"}},"byteStride":4,"target":34962},{"buffer":1,"byteOffset":784,"byteLength":432,"extensions":{"EXT_meshopt_compression":{"buffer":0,"byteOffset":548,"byteLength":105,"byteStride":2,"count":216,"mode":"TRIANGLES"}},"target":34963},{"buffer":1,"byteOffset":1216,"byteLength":20,"extensions":{"EXT_meshopt_compression":{"buffer":0,"byteOffset":656,"byteLength":48,"byteStride":4,"count":5,"mode":"ATTRIBUTES","filter":"EXPONENTIAL"}}},{"buffer":1,"byteOffset":1236,"byteLength":40,"extensions":{"EXT_meshopt_compression":{"buffer":0,"byteOffset":704,"byteLength":61,"byteStride":8,"count":5,"mode":"ATTRIBUTES","filter":"QUATERNION"}}}],"accessors":[{"bufferView":0,"componentType":5123,"count":49,"type":"VEC3","min":[0,0,0],"max":[6000,3000,6000]},{"bufferView":1,"componentType":5120,"normalized":true,"count":49,"type":"VEC3"},{"bufferView":2,"componentType":5123,"normalized":true,"count":49,"type":"VEC2"},{"bufferView":3,"componentType":5123,"count":216,"type":"SCALAR"},{"bufferView":4,"componentType":5126,"count":5,"type":"SCALAR","min":[0],"max":[2]},{"bufferView":5,"componentType":5122,"normalized":true,"count":5,"type":"VEC4"}],"meshes":[{"primitives":[{"attributes":{"POSITION":0,"NORMAL":1,"TEXCOORD_0":2},"indices":3}]}],"nodes":[{"mesh":0,"name":"hill","scale":[0.001,0.001,0.001]}],"scenes":[{"nodes":[0]}],"scene":0,"animations":[{"channels":[{"sampler":0,"target":{"node":0,"path":"rotation"}}],"samplers":[{"input":4,"output":5}]}]}