{
 "asset": {
  "version": "2.0",
  "generator": "ThreeMojo fixtures"
 },
 "scene": 0,
 "scenes": [
  {
   "name": "Main",
   "nodes": [
    0,
    2
   ]
  },
  {
   "name": "Other",
   "nodes": [
    3
   ]
  }
 ],
 "nodes": [
  {
   "name": "Parent",
   "mesh": 0,
   "translation": [
    1,
    2,
    3
   ],
   "children": [
    1
   ]
  },
  {
   "name": "Child",
   "mesh": 0,
   "scale": [
    2,
    2,
    2
   ],
   "rotation": [
    0,
    0.7071068,
    0,
    0.7071068
   ]
  },
  {
   "name": "Twisted",
   "mesh": 1,
   "matrix": [
    0,
    2,
    0,
    0,
    -2,
    0,
    0,
    0,
    0,
    0,
    2,
    0,
    5,
    6,
    7,
    1
   ]
  },
  {
   "name": "Elsewhere",
   "mesh": 0
  }
 ],
 "meshes": [
  {
   "name": "Box",
   "primitives": [
    {
     "attributes": {
      "POSITION": 0,
      "NORMAL": 1,
      "TEXCOORD_0": 2
     },
     "indices": 3,
     "material": 0
    }
   ]
  },
  {
   "name": "Plain",
   "primitives": [
    {
     "attributes": {
      "POSITION": 0
     }
    },
    {
     "attributes": {
      "POSITION": 0,
      "NORMAL": 1
     },
     "material": 1
    }
   ]
  }
 ],
 "accessors": [
  {
   "bufferView": 0,
   "componentType": 5126,
   "count": 24,
   "type": "VEC3",
   "min": [
    -0.5,
    -0.5,
    -0.5
   ],
   "max": [
    0.5,
    0.5,
    0.5
   ]
  },
  {
   "bufferView": 1,
   "componentType": 5126,
   "count": 24,
   "type": "VEC3"
  },
  {
   "bufferView": 2,
   "componentType": 5126,
   "count": 24,
   "type": "VEC2"
  },
  {
   "bufferView": 3,
   "componentType": 5123,
   "count": 36,
   "type": "SCALAR"
  }
 ],
 "bufferViews": [
  {
   "buffer": 0,
   "byteOffset": 0,
   "byteLength": 288
  },
  {
   "buffer": 0,
   "byteOffset": 288,
   "byteLength": 288
  },
  {
   "buffer": 0,
   "byteOffset": 576,
   "byteLength": 192
  },
  {
   "buffer": 0,
   "byteOffset": 768,
   "byteLength": 72
  }
 ],
 "buffers": [
  {
   "byteLength": 840,
   "uri": "box.bin"
  }
 ],
 "materials": [
  {
   "name": "Painted",
   "pbrMetallicRoughness": {
    "baseColorFactor": [
     1,
     0.5,
     0.25,
     1
    ],
    "baseColorTexture": {
     "index": 0
    },
    "metallicFactor": 0.25,
    "roughnessFactor": 0.75
   },
   "doubleSided": true,
   "emissiveFactor": [
    0,
    0.25,
    0
   ]
  },
  {
   "name": "Glass",
   "pbrMetallicRoughness": {
    "baseColorFactor": [
     0.2,
     0.4,
     0.6,
     0.5
    ],
    "metallicFactor": 0
   },
   "alphaMode": "BLEND"
  },
  {
   "name": "Cutout",
   "alphaMode": "MASK",
   "alphaCutoff": 0.3
  }
 ],
 "textures": [
  {
   "source": 0,
   "sampler": 0
  }
 ],
 "samplers": [
  {
   "magFilter": 9728,
   "minFilter": 9728,
   "wrapS": 33071,
   "wrapT": 33071
  }
 ],
 "images": [
  {
   "uri": "checker.png"
  }
 ]
}