{
 "asset": {
  "version": "2.0",
  "generator": "THREE.GLTFExporter r180"
 },
 "scenes": [
  {
   "nodes": [
    0,
    1,
    3,
    5,
    6,
    7,
    8,
    10,
    11,
    12,
    13,
    14,
    15
   ]
  }
 ],
 "scene": 0,
 "nodes": [
  {
   "translation": [
    0,
    2,
    0
   ],
   "name": "lamp",
   "extensions": {
    "KHR_lights_punctual": {
     "light": 0
    }
   }
  },
  {
   "translation": [
    0,
    1,
    0
   ],
   "name": "sun",
   "children": [
    2
   ],
   "extensions": {
    "KHR_lights_punctual": {
     "light": 1
    }
   }
  },
  {
   "translation": [
    0,
    0,
    -1
   ]
  },
  {
   "translation": [
    0,
    1,
    0
   ],
   "name": "spot",
   "children": [
    4
   ],
   "extensions": {
    "KHR_lights_punctual": {
     "light": 2
    }
   }
  },
  {
   "translation": [
    0,
    0,
    -1
   ]
  },
  {
   "translation": [
    0,
    0,
    5
   ],
   "name": "eye",
   "camera": 0
  },
  {
   "name": "flat",
   "camera": 1
  },
  {
   "name": "blob",
   "mesh": 0
  },
  {
   "name": "root",
   "children": [
    9
   ]
  },
  {
   "translation": [
    0,
    1,
    0
   ],
   "name": "tip"
  },
  {
   "name": "arm",
   "mesh": 1,
   "skin": 0
  },
  {
   "name": "crowd",
   "mesh": 2,
   "extensions": {
    "EXT_mesh_gpu_instancing": {
     "attributes": {
      "TRANSLATION": 7,
      "ROTATION": 8,
      "SCALE": 9,
      "_COLOR_0": 10
     }
    }
   }
  },
  {
   "name": "wire",
   "mesh": 3
  },
  {
   "name": "loop",
   "mesh": 4
  },
  {
   "name": "strip",
   "mesh": 5
  },
  {
   "name": "dots",
   "mesh": 6
  }
 ],
 "extensions": {
  "KHR_lights_punctual": {
   "lights": [
    {
     "name": "lamp",
     "color": [
      1,
      0.21586050010324415,
      0
     ],
     "intensity": 3,
     "type": "point",
     "range": 10
    },
    {
     "name": "sun",
     "color": [
      1,
      1,
      1
     ],
     "intensity": 2,
     "type": "directional"
    },
    {
     "name": "spot",
     "color": [
      0,
      1,
      0
     ],
     "intensity": 5,
     "type": "spot",
     "range": 5,
     "spot": {
      "innerConeAngle": 0.4,
      "outerConeAngle": 0.5
     }
    }
   ]
  }
 },
 "cameras": [
  {
   "type": "perspective",
   "perspective": {
    "aspectRatio": 1.5,
    "yfov": 0.8726646259971648,
    "zfar": 100,
    "znear": 0.1
   },
   "name": "PerspectiveCamera"
  },
  {
   "type": "orthographic",
   "orthographic": {
    "xmag": 4,
    "ymag": 2,
    "zfar": 20,
    "znear": 0.5
   },
   "name": "OrthographicCamera"
  }
 ],
 "bufferViews": [
  {
   "buffer": 0,
   "byteOffset": 0,
   "byteLength": 36,
   "target": 34962,
   "byteStride": 12
  },
  {
   "buffer": 0,
   "byteOffset": 36,
   "byteLength": 36,
   "target": 34962,
   "byteStride": 12
  },
  {
   "buffer": 0,
   "byteOffset": 72,
   "byteLength": 36,
   "target": 34962,
   "byteStride": 12
  },
  {
   "buffer": 0,
   "byteOffset": 108,
   "byteLength": 36,
   "target": 34962,
   "byteStride": 12
  },
  {
   "buffer": 0,
   "byteOffset": 144,
   "byteLength": 24,
   "target": 34962,
   "byteStride": 8
  },
  {
   "buffer": 0,
   "byteOffset": 168,
   "byteLength": 48,
   "target": 34962,
   "byteStride": 16
  },
  {
   "buffer": 0,
   "byteOffset": 216,
   "byteLength": 36,
   "target": 34962,
   "byteStride": 12
  },
  {
   "buffer": 0,
   "byteOffset": 252,
   "byteLength": 24
  },
  {
   "buffer": 0,
   "byteOffset": 276,
   "byteLength": 32
  },
  {
   "buffer": 0,
   "byteOffset": 308,
   "byteLength": 24
  },
  {
   "buffer": 0,
   "byteOffset": 332,
   "byteLength": 24
  },
  {
   "buffer": 0,
   "byteOffset": 356,
   "byteLength": 48,
   "target": 34962,
   "byteStride": 12
  },
  {
   "buffer": 0,
   "byteOffset": 404,
   "byteLength": 36,
   "target": 34962,
   "byteStride": 12
  },
  {
   "buffer": 0,
   "byteOffset": 440,
   "byteLength": 36,
   "target": 34962,
   "byteStride": 12
  },
  {
   "buffer": 0,
   "byteOffset": 476,
   "byteLength": 24,
   "target": 34962,
   "byteStride": 12
  },
  {
   "buffer": 0,
   "byteOffset": 500,
   "byteLength": 128
  },
  {
   "buffer": 0,
   "byteOffset": 628,
   "byteLength": 12
  },
  {
   "buffer": 0,
   "byteOffset": 640,
   "byteLength": 36
  },
  {
   "buffer": 0,
   "byteOffset": 676,
   "byteLength": 8
  },
  {
   "buffer": 0,
   "byteOffset": 684,
   "byteLength": 32
  },
  {
   "buffer": 0,
   "byteOffset": 716,
   "byteLength": 8
  },
  {
   "buffer": 0,
   "byteOffset": 724,
   "byteLength": 24
  },
  {
   "buffer": 0,
   "byteOffset": 748,
   "byteLength": 16
  },
  {
   "buffer": 0,
   "byteOffset": 764,
   "byteLength": 32
  }
 ],
 "buffers": [
  {
   "byteLength": 796,
   "uri": "data:application/octet-stream;base64,"
  }
 ],
 "accessors": [
  {
   "bufferView": 0,
   "componentType": 5126,
   "count": 3,
   "max": [
    1,
    1,
    0
   ],
   "min": [
    0,
    0,
    0
   ],
   "type": "VEC3"
  },
  {
   "bufferView": 1,
   "componentType": 5126,
   "count": 3,
   "max": [
    0,
    1,
    0
   ],
   "min": [
    0,
    0,
    0
   ],
   "type": "VEC3"
  },
  {
   "bufferView": 2,
   "componentType": 5126,
   "count": 3,
   "max": [
    0,
    0,
    0
   ],
   "min": [
    0,
    -1,
    0
   ],
   "type": "VEC3"
  },
  {
   "bufferView": 3,
   "componentType": 5126,
   "count": 3,
   "max": [
    1,
    1,
    0
   ],
   "min": [
    0,
    0,
    0
   ],
   "type": "VEC3"
  },
  {
   "bufferView": 4,
   "componentType": 5123,
   "count": 3,
   "max": [
    1,
    0,
    0,
    0
   ],
   "min": [
    0,
    0,
    0,
    0
   ],
   "type": "VEC4"
  },
  {
   "bufferView": 5,
   "componentType": 5126,
   "count": 3,
   "max": [
    1,
    0,
    0,
    0
   ],
   "min": [
    1,
    0,
    0,
    0
   ],
   "type": "VEC4"
  },
  {
   "bufferView": 6,
   "componentType": 5126,
   "count": 3,
   "max": [
    1,
    1,
    0
   ],
   "min": [
    0,
    0,
    0
   ],
   "type": "VEC3"
  },
  {
   "bufferView": 7,
   "componentType": 5126,
   "count": 2,
   "max": [
    1,
    1,
    0
   ],
   "min": [
    0,
    0,
    0
   ],
   "type": "VEC3"
  },
  {
   "bufferView": 8,
   "componentType": 5126,
   "count": 2,
   "max": [
    0,
    0,
    0,
    1
   ],
   "min": [
    0,
    0,
    0,
    1
   ],
   "type": "VEC4"
  },
  {
   "bufferView": 9,
   "componentType": 5126,
   "count": 2,
   "max": [
    2,
    2,
    2
   ],
   "min": [
    1,
    1,
    1
   ],
   "type": "VEC3"
  },
  {
   "bufferView": 10,
   "componentType": 5126,
   "count": 2,
   "max": [
    1,
    0,
    1
   ],
   "min": [
    0,
    0,
    0
   ],
   "type": "VEC3"
  },
  {
   "bufferView": 11,
   "componentType": 5126,
   "count": 4,
   "max": [
    3,
    9,
    0
   ],
   "min": [
    0,
    0,
    0
   ],
   "type": "VEC3"
  },
  {
   "bufferView": 12,
   "componentType": 5126,
   "count": 3,
   "max": [
    2,
    4,
    0
   ],
   "min": [
    0,
    0,
    0
   ],
   "type": "VEC3"
  },
  {
   "bufferView": 13,
   "componentType": 5126,
   "count": 3,
   "max": [
    2,
    4,
    0
   ],
   "min": [
    0,
    0,
    0
   ],
   "type": "VEC3"
  },
  {
   "bufferView": 14,
   "componentType": 5126,
   "count": 2,
   "max": [
    1,
    1,
    0
   ],
   "min": [
    0,
    0,
    0
   ],
   "type": "VEC3"
  },
  {
   "bufferView": 15,
   "componentType": 5126,
   "count": 2,
   "max": [
    1,
    0,
    0,
    0,
    0,
    1,
    0,
    0,
    0,
    0,
    1,
    0,
    0,
    0,
    0,
    1
   ],
   "min": [
    1,
    0,
    0,
    0,
    0,
    1,
    0,
    0,
    0,
    0,
    1,
    0,
    0,
    -1,
    0,
    1
   ],
   "type": "MAT4"
  },
  {
   "bufferView": 16,
   "componentType": 5126,
   "count": 3,
   "max": [
    2
   ],
   "min": [
    0
   ],
   "type": "SCALAR"
  },
  {
   "bufferView": 17,
   "componentType": 5126,
   "count": 3,
   "max": [
    1,
    3,
    0
   ],
   "min": [
    0,
    2,
    0
   ],
   "type": "VEC3"
  },
  {
   "bufferView": 18,
   "componentType": 5126,
   "count": 2,
   "max": [
    1
   ],
   "min": [
    0
   ],
   "type": "SCALAR"
  },
  {
   "bufferView": 19,
   "componentType": 5126,
   "count": 2,
   "max": [
    0,
    0,
    0.7071067690849304,
    1
   ],
   "min": [
    0,
    0,
    0,
    0.7071067690849304
   ],
   "type": "VEC4"
  },
  {
   "bufferView": 20,
   "componentType": 5126,
   "count": 2,
   "max": [
    2
   ],
   "min": [
    0
   ],
   "type": "SCALAR"
  },
  {
   "bufferView": 21,
   "componentType": 5126,
   "count": 2,
   "max": [
    2,
    2,
    2
   ],
   "min": [
    1,
    1,
    1
   ],
   "type": "VEC3"
  },
  {
   "bufferView": 22,
   "componentType": 5126,
   "count": 4,
   "max": [
    1.5
   ],
   "min": [
    0
   ],
   "type": "SCALAR"
  },
  {
   "bufferView": 23,
   "componentType": 5126,
   "count": 8,
   "max": [
    1
   ],
   "min": [
    0
   ],
   "type": "SCALAR"
  }
 ],
 "materials": [
  {
   "pbrMetallicRoughness": {
    "metallicFactor": 0,
    "roughnessFactor": 0.9
   },
   "extensions": {
    "KHR_materials_unlit": {}
   }
  },
  {
   "pbrMetallicRoughness": {
    "baseColorFactor": [
     0.033104766565152086,
     0.13286832154414627,
     0.31854677811435356,
     1
    ],
    "metallicFactor": 0,
    "roughnessFactor": 0.9
   },
   "extensions": {
    "KHR_materials_unlit": {}
   }
  }
 ],
 "meshes": [
  {
   "weights": [
    0.25,
    0.5
   ],
   "extras": {
    "targetNames": [
     "smile",
     "frown"
    ]
   },
   "primitives": [
    {
     "mode": 4,
     "attributes": {
      "POSITION": 0
     },
     "targets": [
      {
       "POSITION": 1
      },
      {
       "POSITION": 2
      }
     ],
     "material": 0
    }
   ]
  },
  {
   "primitives": [
    {
     "mode": 4,
     "attributes": {
      "POSITION": 3,
      "JOINTS_0": 4,
      "WEIGHTS_0": 5
     },
     "material": 0
    }
   ]
  },
  {
   "primitives": [
    {
     "mode": 4,
     "attributes": {
      "POSITION": 6
     },
     "material": 0
    }
   ]
  },
  {
   "primitives": [
    {
     "mode": 1,
     "attributes": {
      "POSITION": 11
     },
     "material": 1
    }
   ]
  },
  {
   "primitives": [
    {
     "mode": 2,
     "attributes": {
      "POSITION": 12
     },
     "material": 1
    }
   ]
  },
  {
   "primitives": [
    {
     "mode": 3,
     "attributes": {
      "POSITION": 13
     },
     "material": 1
    }
   ]
  },
  {
   "primitives": [
    {
     "mode": 0,
     "attributes": {
      "POSITION": 14
     },
     "material": 1
    }
   ]
  }
 ],
 "skins": [
  {
   "inverseBindMatrices": 15,
   "joints": [
    8,
    9
   ],
   "skeleton": 8
  }
 ],
 "animations": [
  {
   "name": "move",
   "samplers": [
    {
     "input": 16,
     "output": 17,
     "interpolation": "LINEAR"
    },
    {
     "input": 18,
     "output": 19,
     "interpolation": "STEP"
    },
    {
     "input": 20,
     "output": 21,
     "interpolation": "LINEAR"
    },
    {
     "input": 22,
     "output": 23,
     "interpolation": "LINEAR"
    }
   ],
   "channels": [
    {
     "sampler": 0,
     "target": {
      "node": 0,
      "path": "translation"
     }
    },
    {
     "sampler": 1,
     "target": {
      "node": 8,
      "path": "rotation"
     }
    },
    {
     "sampler": 2,
     "target": {
      "node": 9,
      "path": "scale"
     }
    },
    {
     "sampler": 3,
     "target": {
      "node": 7,
      "path": "weights"
     }
    }
   ]
  }
 ],
 "extensionsUsed": [
  "KHR_lights_punctual",
  "KHR_materials_unlit",
  "EXT_mesh_gpu_instancing"
 ],
 "extensionsRequired": [
  "EXT_mesh_gpu_instancing"
 ]
}
