#VRML V2.0 utf8
# Face sets: colors and normals per vertex and per face, with and without
# their own index, texture coordinates, and faces turned over.

DEF P Coordinate { point [ 0 0 0, 1 0 0, 1 1 0, 0 1 0, 0.5 0.5 1, 2 0 0.5 ] }

Transform { children [
  Shape { geometry IndexedFaceSet {
    coord USE P
    coordIndex [ 0 1 2 3 -1 1 5 2 ]
    color Color { color [ 1 0 0, 0 1 0, 0 0 1, 1 1 0, 0 1 1, 1 0 1 ] }
    colorIndex [ 5 4 3 2 -1 1 0 2 ]
    normal Normal { vector [ 0 0 1, 0 1 0, 1 0 0 ] }
    normalIndex [ 0 1 2 0 -1 2 1 0 ]
    texCoord TextureCoordinate { point [ 0 0, 1 0, 1 1, 0 1 ] }
    texCoordIndex [ 0 1 2 3 -1 3 2 1 ]
    ccw FALSE
  } }
  Shape { geometry IndexedFaceSet {
    coord USE P
    coordIndex [ 0 1 2 3 -1 1 5 2 -1 ]
    color Color { color [ 1 0 0, 0 0.5 0.25 ] }
    colorPerVertex FALSE
    normal Normal { vector [ 0 0 1, 0 0.6 0.8 ] }
    normalPerVertex FALSE
    texCoord TextureCoordinate { point [ 0 0, 1 0, 1 1, 0 1, 0.5 0.5, 0.2 0.8 ] }
  } }
  Shape { geometry IndexedFaceSet {
    coord USE P
    coordIndex [ 0 1 2 3 -1 1 5 2 ]
    color Color { color [ 1 0 0, 0 0.5 0.25, 0.1 0.2 0.3 ] }
    colorPerVertex FALSE
    colorIndex [ 2 0 ]
    normal Normal { vector [ 0 0 1, 0 0.6 0.8 ] }
    normalPerVertex FALSE
    normalIndex [ 1 0 ]
  } }
  Shape { geometry IndexedFaceSet {
    coord USE P
    coordIndex [ 0 1 2 3 -1 1 5 2 -1 0 1 4 -1 1 2 4 -1 2 3 4 -1 3 0 4 ]
    color USE C
    creaseAngle 0.9
    ccw TRUE
    solid TRUE
  } }
  Shape { geometry IndexedFaceSet {
    coord USE P
    coordIndex [ 0 1 2 3 -1 1 5 2 -1 0 1 4 -1 1 2 4 -1 2 3 4 -1 3 0 4 ]
    creaseAngle 3.2
    normal NULL
    color NULL
  } }
  Shape { geometry IndexedFaceSet {
    coord Coordinate { point [ 0 0 0, 1 0 0, 1 1 0, 0 0 0 ] }
    coordIndex [ 0 1 3 -1 0 1 2 ]
    creaseAngle 1
  } }
] }

DEF C Color { color [ 0.2 0.4 0.6, 0.8 0.6 0.4, 0.04 0.03 0.02, 1 1 1, 0.5 0.5 0.5, 0 0 0 ] }
