# vtk DataFile Version 3.0
point colors and normals                                                                                                                                                                                
ASCII
DATASET POLYDATA
POINTS 6 float
0 0 0 1 0 0 1 1 0
0 1 0
2 0 0.5
2 1 -1.5e-1

POLYGONS 2 9
4 0 1 2 3
3 1 4 5
TRIANGLE_STRIPS 1 5
4 0 1 3 2
POINT_DATA 6
NORMALS Normals float
0 0 1 0 0 1 0 0 1
0 0 1 0 0 1 0 1 0
COLOR_SCALARS rgb 3
1 0 0 0 1 0 0 0 1
0.5 0.5 0.5 1 1 1 0.02 0.2 0.9
