# vtk DataFile Version 3.0
quirks                                                                                                                                                                                                  
ASCII
DATASET POLYDATA
POINTS 9 float
x 1 2 3
10 20 30 40 50 60
y 4 5 6 7 8
1 2 3
-1 .5 2e+1 3 4 5
1e+3 -2e-1 7
5 6　7 8 9 10
11 12 13 14  15﻿16 17  18 19
POLYGONS 3 12
3 0 1
4 0 1 2 3 # a comment
2 0 1
TRIANGLE_STRIPS 1 3
1 4
POINT_DATA  9
COLOR_SCALARS aZ_9 4
COLOR_SCALARS aZ_9 35
0.1 0.2 0.3 0.04 0.5 0.9 1 1 1
0 0 0 0.2 0.2 0.2 0.3 0.3 0.3 0.4 0.4 0.4 0.5 0.5 0.5
NORMALS n float
0 0 1 0 0 1 0 0 1 0 0 1 0 0 1 0 0 1 0 0 1 0 1 0
